<?xml version="1.0" encoding="UTF-8"?>
<svg width="1200" height="800" viewBox="0 0 1200 800" xmlns="http://www.w3.org/2000/svg" style="background:#fff">
  <style>
    .muted { fill:#8b8b8b; font-family: Inter, system-ui, -apple-system, 'Segoe UI', Roboto, 'Helvetica Neue', Arial; }
    .title { fill:#111827; font-family: Inter, system-ui, -apple-system, 'Segoe UI', Roboto; font-weight:700 }
    .card { fill:#ffffff; stroke:#e5e7eb; stroke-width:1; rx:10 }
    .line { stroke:#e5e7eb; stroke-width:1 }
  </style>

  <!-- Header -->
  <rect x="40" y="28" width="1120" height="64" rx="8" fill="#ffffff" stroke="#f3f4f6"/>
  <text x="64" y="68" class="title" font-size="20">My First Web</text>
  <text x="1080" y="68" class="muted" font-size="14" text-anchor="end">로그인</text>

  <!-- Search bar -->
  <rect x="40" y="110" width="820" height="56" rx="8" fill="#f8fafc" stroke="#e6edf3"/>
  <text x="64" y="145" class="muted" font-size="14">🔍 검색어를 입력하세요 (제목 중심)</text>
  <rect x="880" y="110" width="280" height="56" rx="8" fill="#4f46e5"/>
  <text x="1020" y="145" fill="#ffffff" font-size="14" text-anchor="middle">새 글 작성</text>

  <!-- Grid of post cards (2 columns x 3 rows) -->
  <!-- Card 1 -->
  <rect x="40" y="190" width="540" height="120" class="card"/>
  <rect x="600" y="190" width="540" height="120" class="card"/>

  <!-- Card 2 -->
  <rect x="40" y="330" width="540" height="120" class="card"/>
  <rect x="600" y="330" width="540" height="120" class="card"/>

  <!-- Card 3 -->
  <rect x="40" y="470" width="540" height="120" class="card"/>
  <rect x="600" y="470" width="540" height="120" class="card"/>

  <!-- Card content placeholders -->
  <!-- Titles -->
  <text x="64" y="220" class="title" font-size="16">게시물 제목 예시 — 카드 1</text>
  <text x="624" y="220" class="title" font-size="16">게시물 제목 예시 — 카드 2</text>

  <text x="64" y="360" class="title" font-size="16">게시물 제목 예시 — 카드 3</text>
  <text x="624" y="360" class="title" font-size="16">게시물 제목 예시 — 카드 4</text>

  <text x="64" y="500" class="title" font-size="16">게시물 제목 예시 — 카드 5</text>
  <text x="624" y="500" class="title" font-size="16">게시물 제목 예시 — 카드 6</text>

  <!-- Excerpt lines -->
  <line x1="64" y1="235" x2="560" y2="235" class="line" />
  <line x1="624" y1="235" x2="1120" y2="235" class="line" />

  <text x="64" y="255" class="muted" font-size="13">간단한 요약 텍스트가 들어갑니다. 내용 일부를 보여줍니다.</text>
  <text x="624" y="255" class="muted" font-size="13">간단한 요약 텍스트가 들어갑니다. 내용 일부를 보여줍니다.</text>

  <text x="64" y="395" class="muted" font-size="13">간단한 요약 텍스트가 들어갑니다.</text>
  <text x="624" y="395" class="muted" font-size="13">간단한 요약 텍스트가 들어갑니다.</text>

  <text x="64" y="535" class="muted" font-size="13">간단한 요약 텍스트가 들어갑니다.</text>
  <text x="624" y="535" class="muted" font-size="13">간단한 요약 텍스트가 들어갑니다.</text>

  <!-- Meta (author/date) -->
  <text x="64" y="270" class="muted" font-size="12">작성자 • 2026-04-01</text>
  <text x="624" y="270" class="muted" font-size="12">작성자 • 2026-04-01</text>

  <text x="64" y="410" class="muted" font-size="12">작성자 • 2026-03-28</text>
  <text x="624" y="410" class="muted" font-size="12">작성자 • 2026-03-28</text>

  <text x="64" y="550" class="muted" font-size="12">작성자 • 2026-03-15</text>
  <text x="624" y="550" class="muted" font-size="12">작성자 • 2026-03-15</text>

  <!-- Footer pagination hint -->
  <text x="600" y="720" class="muted" font-size="13" text-anchor="middle">‹ 이전  •  1 2 3  •  다음 ›</text>

</svg>
